<mxfile host="app.diagrams.net" modified="2023-09-21T06:17:07.630Z" agent="Mozilla/5.0 (Macintosh; Intel Mac OS X 10_15_7) AppleWebKit/605.1.15 (KHTML, like Gecko) Version/16.6 Safari/605.1.15" etag="MkRtT937HCCXFe_BNAHz" version="21.8.0" type="github">
  <diagram id="C5RBs43oDa-KdzZeNtuy" name="Page-1">
    <mxGraphModel dx="984" dy="694" grid="1" gridSize="10" guides="1" tooltips="1" connect="1" arrows="1" fold="1" page="1" pageScale="1" pageWidth="827" pageHeight="1169" math="0" shadow="0">
      <root>
        <mxCell id="WIyWlLk6GJQsqaUBKTNV-0" />
        <mxCell id="WIyWlLk6GJQsqaUBKTNV-1" parent="WIyWlLk6GJQsqaUBKTNV-0" />
        <mxCell id="SzWZgTvWnYiZqdvDr44G-5" value="" style="edgeStyle=orthogonalEdgeStyle;rounded=0;orthogonalLoop=1;jettySize=auto;html=1;" edge="1" parent="WIyWlLk6GJQsqaUBKTNV-1" source="SzWZgTvWnYiZqdvDr44G-3" target="SzWZgTvWnYiZqdvDr44G-4">
          <mxGeometry relative="1" as="geometry" />
        </mxCell>
        <mxCell id="SzWZgTvWnYiZqdvDr44G-3" value="Parser" style="shape=hexagon;perimeter=hexagonPerimeter2;whiteSpace=wrap;html=1;fixedSize=1;" vertex="1" parent="WIyWlLk6GJQsqaUBKTNV-1">
          <mxGeometry x="340" y="30" width="150" height="40" as="geometry" />
        </mxCell>
        <mxCell id="SzWZgTvWnYiZqdvDr44G-7" value="" style="edgeStyle=orthogonalEdgeStyle;rounded=0;orthogonalLoop=1;jettySize=auto;html=1;" edge="1" parent="WIyWlLk6GJQsqaUBKTNV-1" source="SzWZgTvWnYiZqdvDr44G-4" target="SzWZgTvWnYiZqdvDr44G-6">
          <mxGeometry relative="1" as="geometry">
            <Array as="points">
              <mxPoint x="740" y="50" />
            </Array>
          </mxGeometry>
        </mxCell>
        <mxCell id="SzWZgTvWnYiZqdvDr44G-4" value="Raw_data" style="rounded=1;whiteSpace=wrap;html=1;" vertex="1" parent="WIyWlLk6GJQsqaUBKTNV-1">
          <mxGeometry x="550" y="35" width="120" height="30" as="geometry" />
        </mxCell>
        <mxCell id="SzWZgTvWnYiZqdvDr44G-9" value="" style="edgeStyle=orthogonalEdgeStyle;rounded=0;orthogonalLoop=1;jettySize=auto;html=1;" edge="1" parent="WIyWlLk6GJQsqaUBKTNV-1" source="SzWZgTvWnYiZqdvDr44G-6" target="SzWZgTvWnYiZqdvDr44G-8">
          <mxGeometry relative="1" as="geometry" />
        </mxCell>
        <mxCell id="SzWZgTvWnYiZqdvDr44G-6" value="Data_base" style="ellipse;shape=cloud;whiteSpace=wrap;html=1;rounded=1;" vertex="1" parent="WIyWlLk6GJQsqaUBKTNV-1">
          <mxGeometry x="650" y="112.5" width="160" height="50" as="geometry" />
        </mxCell>
        <mxCell id="SzWZgTvWnYiZqdvDr44G-13" value="" style="edgeStyle=orthogonalEdgeStyle;rounded=0;orthogonalLoop=1;jettySize=auto;html=1;" edge="1" parent="WIyWlLk6GJQsqaUBKTNV-1" source="SzWZgTvWnYiZqdvDr44G-8" target="SzWZgTvWnYiZqdvDr44G-12">
          <mxGeometry relative="1" as="geometry" />
        </mxCell>
        <mxCell id="SzWZgTvWnYiZqdvDr44G-8" value="Raw_data" style="whiteSpace=wrap;html=1;rounded=1;" vertex="1" parent="WIyWlLk6GJQsqaUBKTNV-1">
          <mxGeometry x="352.5" y="120" width="125" height="35" as="geometry" />
        </mxCell>
        <mxCell id="SzWZgTvWnYiZqdvDr44G-19" style="edgeStyle=orthogonalEdgeStyle;rounded=0;orthogonalLoop=1;jettySize=auto;html=1;exitX=1;exitY=0.5;exitDx=0;exitDy=0;entryX=0;entryY=0.5;entryDx=0;entryDy=0;" edge="1" parent="WIyWlLk6GJQsqaUBKTNV-1" source="SzWZgTvWnYiZqdvDr44G-12" target="SzWZgTvWnYiZqdvDr44G-14">
          <mxGeometry relative="1" as="geometry" />
        </mxCell>
        <mxCell id="SzWZgTvWnYiZqdvDr44G-20" style="edgeStyle=orthogonalEdgeStyle;rounded=0;orthogonalLoop=1;jettySize=auto;html=1;exitX=1;exitY=0.75;exitDx=0;exitDy=0;entryX=0.3;entryY=0;entryDx=0;entryDy=0;entryPerimeter=0;" edge="1" parent="WIyWlLk6GJQsqaUBKTNV-1" source="SzWZgTvWnYiZqdvDr44G-12" target="SzWZgTvWnYiZqdvDr44G-17">
          <mxGeometry relative="1" as="geometry" />
        </mxCell>
        <mxCell id="SzWZgTvWnYiZqdvDr44G-12" value="Data_reconstructor" style="shape=hexagon;perimeter=hexagonPerimeter2;whiteSpace=wrap;html=1;fixedSize=1;" vertex="1" parent="WIyWlLk6GJQsqaUBKTNV-1">
          <mxGeometry x="345" y="200" width="140" height="40" as="geometry" />
        </mxCell>
        <mxCell id="SzWZgTvWnYiZqdvDr44G-14" value="Target_data" style="rounded=1;whiteSpace=wrap;html=1;" vertex="1" parent="WIyWlLk6GJQsqaUBKTNV-1">
          <mxGeometry x="660" y="200" width="140" height="40" as="geometry" />
        </mxCell>
        <mxCell id="SzWZgTvWnYiZqdvDr44G-22" style="edgeStyle=orthogonalEdgeStyle;rounded=0;orthogonalLoop=1;jettySize=auto;html=1;exitX=0.5;exitY=1;exitDx=0;exitDy=0;entryX=1;entryY=0.5;entryDx=0;entryDy=0;" edge="1" parent="WIyWlLk6GJQsqaUBKTNV-1" source="SzWZgTvWnYiZqdvDr44G-17" target="SzWZgTvWnYiZqdvDr44G-21">
          <mxGeometry relative="1" as="geometry" />
        </mxCell>
        <mxCell id="SzWZgTvWnYiZqdvDr44G-17" value="&lt;table border=&quot;1&quot; width=&quot;100%&quot; height=&quot;100%&quot; cellpadding=&quot;4&quot; style=&quot;width:100%;height:100%;border-collapse:collapse;&quot;&gt;&lt;tbody&gt;&lt;tr&gt;&lt;th align=&quot;center&quot;&gt;Working_data&lt;/th&gt;&lt;/tr&gt;&lt;tr&gt;&lt;td align=&quot;center&quot;&gt;Train&lt;/td&gt;&lt;/tr&gt;&lt;tr&gt;&lt;td align=&quot;center&quot;&gt;Test&lt;/td&gt;&lt;/tr&gt;&lt;/tbody&gt;&lt;/table&gt;" style="text;html=1;whiteSpace=wrap;strokeColor=none;fillColor=none;overflow=fill;rounded=0;arcSize=14;" vertex="1" parent="WIyWlLk6GJQsqaUBKTNV-1">
          <mxGeometry x="550" y="270" width="140" height="80" as="geometry" />
        </mxCell>
        <mxCell id="SzWZgTvWnYiZqdvDr44G-21" value="Stock_ar" style="shape=hexagon;perimeter=hexagonPerimeter2;whiteSpace=wrap;html=1;fixedSize=1;" vertex="1" parent="WIyWlLk6GJQsqaUBKTNV-1">
          <mxGeometry x="345" y="320" width="140" height="40" as="geometry" />
        </mxCell>
        <mxCell id="SzWZgTvWnYiZqdvDr44G-23" value="Spot_dt" style="shape=hexagon;perimeter=hexagonPerimeter2;whiteSpace=wrap;html=1;fixedSize=1;" vertex="1" parent="WIyWlLk6GJQsqaUBKTNV-1">
          <mxGeometry x="345" y="440" width="140" height="40" as="geometry" />
        </mxCell>
      </root>
    </mxGraphModel>
  </diagram>
</mxfile>
